<svg width="137" height="118" viewBox="0 0 137 118" fill="none" xmlns="http://www.w3.org/2000/svg">
<path d="M119.152 117.785H17.8566C14.6251 117.721 11.4688 116.799 8.7116 115.112C5.95434 113.426 3.69541 111.036 2.16662 108.189C0.637832 105.341 -0.10577 102.138 0.012125 98.9082C0.130021 95.6783 1.10517 92.5379 2.8375 89.8093L53.4854 8.4302C55.0563 5.85552 57.2628 3.7279 59.8929 2.25163C62.523 0.775355 65.4884 0 68.5045 0C71.5206 0 74.486 0.775355 77.1161 2.25163C79.7462 3.7279 81.9526 5.85552 83.5236 8.4302L134.171 89.8093C135.904 92.5379 136.879 95.6783 136.997 98.9082C137.115 102.138 136.371 105.341 134.842 108.189C133.314 111.036 131.055 113.426 128.297 115.112C125.54 116.799 122.384 117.721 119.152 117.785Z" fill="#FF0000"/>
<path d="M73.9568 32.8692C73.9568 29.8436 71.5041 27.3908 68.4784 27.3908C65.4528 27.3908 63 29.8436 63 32.8692V76.6965C63 79.7222 65.4528 82.1749 68.4784 82.1749C71.5041 82.1749 73.9568 79.7222 73.9568 76.6965V32.8692Z" fill="white"/>
<path d="M68.4784 104.088C71.5041 104.088 73.9568 101.636 73.9568 98.6101C73.9568 95.5844 71.5041 93.1317 68.4784 93.1317C65.4528 93.1317 63 95.5844 63 98.6101C63 101.636 65.4528 104.088 68.4784 104.088Z" fill="white"/>
</svg>
